<?xml version="1.0" standalone="yes"?>
<svg xmlns="http://www.w3.org/2000/svg" width="80" height="61">
<path style="fill:#37517f; stroke:none;" d="M0 0L0 61L80 61L80 0L0 0z"/>
<path style="fill:#fdfdfd; stroke:none;" d="M3 12L3 13L26 4L32 58C43.1001 55.4602 61.013 45.0971 69 37L72 39L69 31L68 31L69 36L58.4329 37.2215L53.686 44.0455L34 56L27 2L3 12z"/>
<path style="fill:#b0b3b8; stroke:none;" d="M22 5L23 6L22 5z"/>
<path style="fill:#4c5058; stroke:none;" d="M20 6L21 7L20 6z"/>
<path style="fill:#83878f; stroke:none;" d="M13 7L14 8L13 7M23 8L24 9L23 8z"/>
<path style="fill:#fdfdfd; stroke:none;" d="M23 9L24 10L23 9z"/>
<path style="fill:#b0b3b8; stroke:none;" d="M26 9L27 10L26 9M8 11L9 12L8 11z"/>
<path style="fill:#fdfdfd; stroke:none;" d="M16 11L16 13L18 13L18 11L16 11z"/>
<path style="fill:#4c5058; stroke:none;" d="M28 11L29 12L28 11M3 13L4 14L3 13z"/>
<path style="fill:#83878f; stroke:none;" d="M9 14L10 15L9 14z"/>
<path style="fill:#fdfdfd; stroke:none;" d="M10.3333 14.6667L10.6667 15.3333L10.3333 14.6667M40.2284 17.0285C33.4808 21.1077 40.249 30.8366 46.8519 26.9715C53.623 23.0078 46.7337 13.0959 40.2284 17.0285z"/>
<path style="fill:#83878f; stroke:none;" d="M42 17L43 18L42 17z"/>
<path style="fill:#37517f; stroke:none;" d="M43.0147 18.0864C38.0711 19.1168 38.7676 26.8985 43.9853 26.338C49.3246 25.7644 48.343 16.9758 43.0147 18.0864z"/>
<path style="fill:#4c5058; stroke:none;" d="M44 17L45 18L44 17z"/>
<path style="fill:#fdfdfd; stroke:none;" d="M2.66667 18.3333L3.33333 18.6667L2.66667 18.3333z"/>
<path style="fill:#b0b3b8; stroke:none;" d="M40 18L41 19L40 18z"/>
<path style="fill:#4c5058; stroke:none;" d="M47 19L48 20L47 19z"/>
<path style="fill:#83878f; stroke:none;" d="M49 19L50 20L49 19z"/>
<path style="fill:#b0b3b8; stroke:none;" d="M29 20L30 21L29 20z"/>
<path style="fill:#4c5058; stroke:none;" d="M39 24L40 25L39 24z"/>
<path style="fill:#b0b3b8; stroke:none;" d="M28 26L29 27L28 26M30 28L31 29L30 28z"/>
<path style="fill:#4c5058; stroke:none;" d="M43 28L44 29L43 28M69 31L70 32L69 31z"/>
<path style="fill:#83878f; stroke:none;" d="M29.3333 34.6667L29.6667 35.3333L29.3333 34.6667M69 37L70 38L69 37z"/>
<path style="fill:#4c5058; stroke:none;" d="M56 38L57 39L56 38z"/>
<path style="fill:#37517f; stroke:none;" d="M58 42L62 38L58 42z"/>
<path style="fill:#b0b3b8; stroke:none;" d="M62 39L63 40L62 39M57.3333 40.6667L57.6667 41.3333L57.3333 40.6667M62 41L63 42L62 41z"/>
<path style="fill:#4c5058; stroke:none;" d="M30 43L31 44L30 43M55 43L56 44L55 43M32 45L33 46L32 45z"/>
<path style="fill:#83878f; stroke:none;" d="M59 46L58 48L59 46z"/>
<path style="fill:#fdfdfd; stroke:none;" d="M59 47L59 48L77 54C73.6134 49.0519 64.6652 47.7635 59 47z"/>
<path style="fill:#b0b3b8; stroke:none;" d="M62 47L63 48L62 47z"/>
<path style="fill:#83878f; stroke:none;" d="M43 50L44 51L43 50z"/>
<path style="fill:#b0b3b8; stroke:none;" d="M66 50L67 51L66 50M69 51L70 52L69 51M43 52L44 53L43 52M72 52L73 53L72 52z"/>
<path style="fill:#83878f; stroke:none;" d="M33 53L34 54L33 53z"/>
<path style="fill:#b0b3b8; stroke:none;" d="M33 54L34 55L33 54M36 54L37 55L36 54z"/>
<path style="fill:#83878f; stroke:none;" d="M36 56L37 57L36 56z"/>
</svg>
